<mxfile host="app.diagrams.net" agent="Mozilla/5.0 (Windows NT 10.0; Win64; x64) AppleWebKit/537.36 (KHTML, like Gecko) Chrome/134.0.0.0 Safari/537.36" version="26.0.4">
  <diagram name="Page-1" id="DQ-45xuzPcWoaU9GiU76">
    <mxGraphModel dx="1434" dy="738" grid="1" gridSize="10" guides="1" tooltips="1" connect="1" arrows="1" fold="1" page="1" pageScale="1" pageWidth="850" pageHeight="1100" math="0" shadow="0">
      <root>
        <mxCell id="0" />
        <mxCell id="1" parent="0" />
        <mxCell id="sJaDOPOqYYHjO4DBvdRy-30" style="edgeStyle=orthogonalEdgeStyle;rounded=0;orthogonalLoop=1;jettySize=auto;html=1;exitX=1;exitY=0;exitDx=0;exitDy=0;entryX=0.5;entryY=0;entryDx=0;entryDy=0;curved=1;" edge="1" parent="1" source="sJaDOPOqYYHjO4DBvdRy-2" target="sJaDOPOqYYHjO4DBvdRy-3">
          <mxGeometry relative="1" as="geometry" />
        </mxCell>
        <mxCell id="sJaDOPOqYYHjO4DBvdRy-31" value="DIRECTION=1" style="edgeLabel;html=1;align=center;verticalAlign=middle;resizable=0;points=[];" vertex="1" connectable="0" parent="sJaDOPOqYYHjO4DBvdRy-30">
          <mxGeometry x="-0.2067" y="-5" relative="1" as="geometry">
            <mxPoint as="offset" />
          </mxGeometry>
        </mxCell>
        <mxCell id="sJaDOPOqYYHjO4DBvdRy-52" style="edgeStyle=orthogonalEdgeStyle;rounded=0;orthogonalLoop=1;jettySize=auto;html=1;exitX=0.5;exitY=1;exitDx=0;exitDy=0;entryX=0.5;entryY=0;entryDx=0;entryDy=0;curved=1;" edge="1" parent="1" source="sJaDOPOqYYHjO4DBvdRy-2" target="sJaDOPOqYYHjO4DBvdRy-13">
          <mxGeometry relative="1" as="geometry">
            <Array as="points">
              <mxPoint x="380" y="169" />
              <mxPoint x="380" y="300" />
            </Array>
          </mxGeometry>
        </mxCell>
        <mxCell id="sJaDOPOqYYHjO4DBvdRy-53" value="DIRECTION=0" style="edgeLabel;html=1;align=center;verticalAlign=middle;resizable=0;points=[];" vertex="1" connectable="0" parent="sJaDOPOqYYHjO4DBvdRy-52">
          <mxGeometry x="-0.253" y="-3" relative="1" as="geometry">
            <mxPoint as="offset" />
          </mxGeometry>
        </mxCell>
        <mxCell id="sJaDOPOqYYHjO4DBvdRy-2" value="STATE_1" style="ellipse;whiteSpace=wrap;html=1;aspect=fixed;" vertex="1" parent="1">
          <mxGeometry x="351" y="89" width="80" height="80" as="geometry" />
        </mxCell>
        <mxCell id="sJaDOPOqYYHjO4DBvdRy-33" style="edgeStyle=orthogonalEdgeStyle;rounded=0;orthogonalLoop=1;jettySize=auto;html=1;exitX=1;exitY=0.5;exitDx=0;exitDy=0;entryX=1;entryY=0;entryDx=0;entryDy=0;curved=1;" edge="1" parent="1" source="sJaDOPOqYYHjO4DBvdRy-3" target="sJaDOPOqYYHjO4DBvdRy-5">
          <mxGeometry relative="1" as="geometry" />
        </mxCell>
        <mxCell id="sJaDOPOqYYHjO4DBvdRy-34" value="DIRECTION=1" style="edgeLabel;html=1;align=center;verticalAlign=middle;resizable=0;points=[];" vertex="1" connectable="0" parent="sJaDOPOqYYHjO4DBvdRy-33">
          <mxGeometry x="0.0607" y="-16" relative="1" as="geometry">
            <mxPoint x="11" y="15" as="offset" />
          </mxGeometry>
        </mxCell>
        <mxCell id="sJaDOPOqYYHjO4DBvdRy-70" style="edgeStyle=orthogonalEdgeStyle;rounded=0;orthogonalLoop=1;jettySize=auto;html=1;exitX=0;exitY=0;exitDx=0;exitDy=0;entryX=1;entryY=0.5;entryDx=0;entryDy=0;curved=1;" edge="1" parent="1" source="sJaDOPOqYYHjO4DBvdRy-3" target="sJaDOPOqYYHjO4DBvdRy-2">
          <mxGeometry relative="1" as="geometry" />
        </mxCell>
        <mxCell id="sJaDOPOqYYHjO4DBvdRy-71" value="DIRECTION=0" style="edgeLabel;html=1;align=center;verticalAlign=middle;resizable=0;points=[];" vertex="1" connectable="0" parent="sJaDOPOqYYHjO4DBvdRy-70">
          <mxGeometry x="0.0903" y="3" relative="1" as="geometry">
            <mxPoint x="9" as="offset" />
          </mxGeometry>
        </mxCell>
        <mxCell id="sJaDOPOqYYHjO4DBvdRy-3" value="STATE_2" style="ellipse;whiteSpace=wrap;html=1;aspect=fixed;" vertex="1" parent="1">
          <mxGeometry x="498" y="143" width="80" height="80" as="geometry" />
        </mxCell>
        <mxCell id="sJaDOPOqYYHjO4DBvdRy-35" style="edgeStyle=orthogonalEdgeStyle;rounded=0;orthogonalLoop=1;jettySize=auto;html=1;exitX=1;exitY=1;exitDx=0;exitDy=0;entryX=1;entryY=0.5;entryDx=0;entryDy=0;curved=1;" edge="1" parent="1" source="sJaDOPOqYYHjO4DBvdRy-5" target="sJaDOPOqYYHjO4DBvdRy-6">
          <mxGeometry relative="1" as="geometry" />
        </mxCell>
        <mxCell id="sJaDOPOqYYHjO4DBvdRy-36" value="DIRECTION=1" style="edgeLabel;html=1;align=center;verticalAlign=middle;resizable=0;points=[];" vertex="1" connectable="0" parent="sJaDOPOqYYHjO4DBvdRy-35">
          <mxGeometry x="-0.3311" relative="1" as="geometry">
            <mxPoint as="offset" />
          </mxGeometry>
        </mxCell>
        <mxCell id="sJaDOPOqYYHjO4DBvdRy-68" style="edgeStyle=orthogonalEdgeStyle;rounded=0;orthogonalLoop=1;jettySize=auto;html=1;exitX=0.5;exitY=0;exitDx=0;exitDy=0;entryX=1;entryY=1;entryDx=0;entryDy=0;curved=1;" edge="1" parent="1" source="sJaDOPOqYYHjO4DBvdRy-5" target="sJaDOPOqYYHjO4DBvdRy-3">
          <mxGeometry relative="1" as="geometry" />
        </mxCell>
        <mxCell id="sJaDOPOqYYHjO4DBvdRy-69" value="DIRECTION=0" style="edgeLabel;html=1;align=center;verticalAlign=middle;resizable=0;points=[];" vertex="1" connectable="0" parent="sJaDOPOqYYHjO4DBvdRy-68">
          <mxGeometry x="-0.0037" y="2" relative="1" as="geometry">
            <mxPoint as="offset" />
          </mxGeometry>
        </mxCell>
        <mxCell id="sJaDOPOqYYHjO4DBvdRy-5" value="STATE_3" style="ellipse;whiteSpace=wrap;html=1;aspect=fixed;" vertex="1" parent="1">
          <mxGeometry x="577" y="278" width="80" height="80" as="geometry" />
        </mxCell>
        <mxCell id="sJaDOPOqYYHjO4DBvdRy-37" style="edgeStyle=orthogonalEdgeStyle;rounded=0;orthogonalLoop=1;jettySize=auto;html=1;exitX=0.5;exitY=1;exitDx=0;exitDy=0;entryX=1;entryY=0.5;entryDx=0;entryDy=0;curved=1;" edge="1" parent="1" source="sJaDOPOqYYHjO4DBvdRy-6" target="sJaDOPOqYYHjO4DBvdRy-7">
          <mxGeometry relative="1" as="geometry" />
        </mxCell>
        <mxCell id="sJaDOPOqYYHjO4DBvdRy-38" value="&lt;span style=&quot;color: rgba(0, 0, 0, 0); font-family: monospace; font-size: 0px; text-align: start; background-color: rgb(251, 251, 251);&quot;&gt;%3CmxGraphModel%3E%3Croot%3E%3CmxCell%20id%3D%220%22%2F%3E%3CmxCell%20id%3D%221%22%20parent%3D%220%22%2F%3E%3CmxCell%20id%3D%222%22%20value%3D%22DIRECTION%3D1%22%20style%3D%22edgeLabel%3Bhtml%3D1%3Balign%3Dcenter%3BverticalAlign%3Dmiddle%3Bresizable%3D0%3Bpoints%3D%5B%5D%3B%22%20vertex%3D%221%22%20connectable%3D%220%22%20parent%3D%221%22%3E%3CmxGeometry%20x%3D%22646.7842712262993%22%20y%3D%22395.5000000000001%22%20as%3D%22geometry%22%2F%3E%3C%2FmxCell%3E%3C%2Froot%3E%3C%2FmxGraphModel%3E&lt;/span&gt;" style="edgeLabel;html=1;align=center;verticalAlign=middle;resizable=0;points=[];" vertex="1" connectable="0" parent="sJaDOPOqYYHjO4DBvdRy-37">
          <mxGeometry x="0.155" y="-12" relative="1" as="geometry">
            <mxPoint as="offset" />
          </mxGeometry>
        </mxCell>
        <mxCell id="sJaDOPOqYYHjO4DBvdRy-39" value="DIRECTION=1" style="edgeLabel;html=1;align=center;verticalAlign=middle;resizable=0;points=[];" vertex="1" connectable="0" parent="sJaDOPOqYYHjO4DBvdRy-37">
          <mxGeometry x="0.2563" y="-11" relative="1" as="geometry">
            <mxPoint x="8" y="-3" as="offset" />
          </mxGeometry>
        </mxCell>
        <mxCell id="sJaDOPOqYYHjO4DBvdRy-66" style="edgeStyle=orthogonalEdgeStyle;rounded=0;orthogonalLoop=1;jettySize=auto;html=1;exitX=0.5;exitY=0;exitDx=0;exitDy=0;entryX=0;entryY=1;entryDx=0;entryDy=0;curved=1;" edge="1" parent="1" source="sJaDOPOqYYHjO4DBvdRy-6" target="sJaDOPOqYYHjO4DBvdRy-5">
          <mxGeometry relative="1" as="geometry">
            <Array as="points">
              <mxPoint x="590" y="390" />
              <mxPoint x="589" y="390" />
            </Array>
          </mxGeometry>
        </mxCell>
        <mxCell id="sJaDOPOqYYHjO4DBvdRy-67" value="DIRECTION=0" style="edgeLabel;html=1;align=center;verticalAlign=middle;resizable=0;points=[];" vertex="1" connectable="0" parent="sJaDOPOqYYHjO4DBvdRy-66">
          <mxGeometry x="0.0065" y="2" relative="1" as="geometry">
            <mxPoint x="3" y="-10" as="offset" />
          </mxGeometry>
        </mxCell>
        <mxCell id="sJaDOPOqYYHjO4DBvdRy-6" value="STATE_4" style="ellipse;whiteSpace=wrap;html=1;aspect=fixed;" vertex="1" parent="1">
          <mxGeometry x="550" y="433" width="80" height="80" as="geometry" />
        </mxCell>
        <mxCell id="sJaDOPOqYYHjO4DBvdRy-40" style="edgeStyle=orthogonalEdgeStyle;rounded=0;orthogonalLoop=1;jettySize=auto;html=1;exitX=0;exitY=1;exitDx=0;exitDy=0;entryX=1;entryY=1;entryDx=0;entryDy=0;curved=1;" edge="1" parent="1" source="sJaDOPOqYYHjO4DBvdRy-7" target="sJaDOPOqYYHjO4DBvdRy-8">
          <mxGeometry relative="1" as="geometry">
            <Array as="points">
              <mxPoint x="442" y="610" />
              <mxPoint x="341" y="610" />
            </Array>
          </mxGeometry>
        </mxCell>
        <mxCell id="sJaDOPOqYYHjO4DBvdRy-41" value="DIRECTION=1" style="edgeLabel;html=1;align=center;verticalAlign=middle;resizable=0;points=[];" vertex="1" connectable="0" parent="sJaDOPOqYYHjO4DBvdRy-40">
          <mxGeometry x="0.0826" y="2" relative="1" as="geometry">
            <mxPoint x="4" y="8" as="offset" />
          </mxGeometry>
        </mxCell>
        <mxCell id="sJaDOPOqYYHjO4DBvdRy-64" style="edgeStyle=orthogonalEdgeStyle;rounded=0;orthogonalLoop=1;jettySize=auto;html=1;exitX=1;exitY=0;exitDx=0;exitDy=0;entryX=0;entryY=0.5;entryDx=0;entryDy=0;curved=1;" edge="1" parent="1" source="sJaDOPOqYYHjO4DBvdRy-7" target="sJaDOPOqYYHjO4DBvdRy-6">
          <mxGeometry relative="1" as="geometry" />
        </mxCell>
        <mxCell id="sJaDOPOqYYHjO4DBvdRy-65" value="DIRECTION=0" style="edgeLabel;html=1;align=center;verticalAlign=middle;resizable=0;points=[];" vertex="1" connectable="0" parent="sJaDOPOqYYHjO4DBvdRy-64">
          <mxGeometry x="0.0586" relative="1" as="geometry">
            <mxPoint y="8" as="offset" />
          </mxGeometry>
        </mxCell>
        <mxCell id="sJaDOPOqYYHjO4DBvdRy-7" value="STATE_5" style="ellipse;whiteSpace=wrap;html=1;aspect=fixed;" vertex="1" parent="1">
          <mxGeometry x="430" y="534" width="80" height="80" as="geometry" />
        </mxCell>
        <mxCell id="sJaDOPOqYYHjO4DBvdRy-42" style="edgeStyle=orthogonalEdgeStyle;rounded=0;orthogonalLoop=1;jettySize=auto;html=1;exitX=0;exitY=0.5;exitDx=0;exitDy=0;entryX=0;entryY=1;entryDx=0;entryDy=0;curved=1;" edge="1" parent="1" source="sJaDOPOqYYHjO4DBvdRy-8" target="sJaDOPOqYYHjO4DBvdRy-9">
          <mxGeometry relative="1" as="geometry" />
        </mxCell>
        <mxCell id="sJaDOPOqYYHjO4DBvdRy-43" value="DIRECTION=1" style="edgeLabel;html=1;align=center;verticalAlign=middle;resizable=0;points=[];" vertex="1" connectable="0" parent="sJaDOPOqYYHjO4DBvdRy-42">
          <mxGeometry x="-0.0466" y="-19" relative="1" as="geometry">
            <mxPoint as="offset" />
          </mxGeometry>
        </mxCell>
        <mxCell id="sJaDOPOqYYHjO4DBvdRy-62" style="edgeStyle=orthogonalEdgeStyle;rounded=0;orthogonalLoop=1;jettySize=auto;html=1;exitX=1;exitY=0;exitDx=0;exitDy=0;entryX=0;entryY=0;entryDx=0;entryDy=0;curved=1;" edge="1" parent="1" source="sJaDOPOqYYHjO4DBvdRy-8" target="sJaDOPOqYYHjO4DBvdRy-7">
          <mxGeometry relative="1" as="geometry">
            <Array as="points">
              <mxPoint x="341" y="530" />
              <mxPoint x="442" y="530" />
            </Array>
          </mxGeometry>
        </mxCell>
        <mxCell id="sJaDOPOqYYHjO4DBvdRy-63" value="DIRECTION=0" style="edgeLabel;html=1;align=center;verticalAlign=middle;resizable=0;points=[];" vertex="1" connectable="0" parent="sJaDOPOqYYHjO4DBvdRy-62">
          <mxGeometry x="-0.0943" y="1" relative="1" as="geometry">
            <mxPoint as="offset" />
          </mxGeometry>
        </mxCell>
        <mxCell id="sJaDOPOqYYHjO4DBvdRy-8" value="STATE_6" style="ellipse;whiteSpace=wrap;html=1;aspect=fixed;" vertex="1" parent="1">
          <mxGeometry x="273" y="534" width="80" height="80" as="geometry" />
        </mxCell>
        <mxCell id="sJaDOPOqYYHjO4DBvdRy-44" style="edgeStyle=orthogonalEdgeStyle;rounded=0;orthogonalLoop=1;jettySize=auto;html=1;exitX=0;exitY=0;exitDx=0;exitDy=0;entryX=0;entryY=1;entryDx=0;entryDy=0;curved=1;" edge="1" parent="1" source="sJaDOPOqYYHjO4DBvdRy-9" target="sJaDOPOqYYHjO4DBvdRy-10">
          <mxGeometry relative="1" as="geometry" />
        </mxCell>
        <mxCell id="sJaDOPOqYYHjO4DBvdRy-45" value="DIRECTION=1" style="edgeLabel;html=1;align=center;verticalAlign=middle;resizable=0;points=[];" vertex="1" connectable="0" parent="sJaDOPOqYYHjO4DBvdRy-44">
          <mxGeometry x="0.0181" relative="1" as="geometry">
            <mxPoint as="offset" />
          </mxGeometry>
        </mxCell>
        <mxCell id="sJaDOPOqYYHjO4DBvdRy-60" style="edgeStyle=orthogonalEdgeStyle;rounded=0;orthogonalLoop=1;jettySize=auto;html=1;exitX=1;exitY=1;exitDx=0;exitDy=0;entryX=0;entryY=0;entryDx=0;entryDy=0;curved=1;" edge="1" parent="1" source="sJaDOPOqYYHjO4DBvdRy-9" target="sJaDOPOqYYHjO4DBvdRy-8">
          <mxGeometry relative="1" as="geometry" />
        </mxCell>
        <mxCell id="sJaDOPOqYYHjO4DBvdRy-61" value="DIRECTION=0" style="edgeLabel;html=1;align=center;verticalAlign=middle;resizable=0;points=[];" vertex="1" connectable="0" parent="sJaDOPOqYYHjO4DBvdRy-60">
          <mxGeometry x="-0.2238" y="-5" relative="1" as="geometry">
            <mxPoint x="10" y="7" as="offset" />
          </mxGeometry>
        </mxCell>
        <mxCell id="sJaDOPOqYYHjO4DBvdRy-9" value="STATE_7" style="ellipse;whiteSpace=wrap;html=1;aspect=fixed;" vertex="1" parent="1">
          <mxGeometry x="153" y="433" width="80" height="80" as="geometry" />
        </mxCell>
        <mxCell id="sJaDOPOqYYHjO4DBvdRy-46" style="edgeStyle=orthogonalEdgeStyle;rounded=0;orthogonalLoop=1;jettySize=auto;html=1;exitX=0.5;exitY=0;exitDx=0;exitDy=0;entryX=0;entryY=0.5;entryDx=0;entryDy=0;curved=1;" edge="1" parent="1" source="sJaDOPOqYYHjO4DBvdRy-10" target="sJaDOPOqYYHjO4DBvdRy-11">
          <mxGeometry relative="1" as="geometry" />
        </mxCell>
        <mxCell id="sJaDOPOqYYHjO4DBvdRy-47" value="DIRECTION=1" style="edgeLabel;html=1;align=center;verticalAlign=middle;resizable=0;points=[];" vertex="1" connectable="0" parent="sJaDOPOqYYHjO4DBvdRy-46">
          <mxGeometry x="-0.339" y="-4" relative="1" as="geometry">
            <mxPoint as="offset" />
          </mxGeometry>
        </mxCell>
        <mxCell id="sJaDOPOqYYHjO4DBvdRy-58" style="edgeStyle=orthogonalEdgeStyle;rounded=0;orthogonalLoop=1;jettySize=auto;html=1;exitX=1;exitY=1;exitDx=0;exitDy=0;curved=1;" edge="1" parent="1" source="sJaDOPOqYYHjO4DBvdRy-10" target="sJaDOPOqYYHjO4DBvdRy-9">
          <mxGeometry relative="1" as="geometry">
            <Array as="points">
              <mxPoint x="210" y="346" />
            </Array>
          </mxGeometry>
        </mxCell>
        <mxCell id="sJaDOPOqYYHjO4DBvdRy-59" value="DIRECTION=0" style="edgeLabel;html=1;align=center;verticalAlign=middle;resizable=0;points=[];" vertex="1" connectable="0" parent="sJaDOPOqYYHjO4DBvdRy-58">
          <mxGeometry x="0.0632" relative="1" as="geometry">
            <mxPoint x="-5" y="-7" as="offset" />
          </mxGeometry>
        </mxCell>
        <mxCell id="sJaDOPOqYYHjO4DBvdRy-10" value="STATE_8" style="ellipse;whiteSpace=wrap;html=1;aspect=fixed;" vertex="1" parent="1">
          <mxGeometry x="125" y="278" width="80" height="80" as="geometry" />
        </mxCell>
        <mxCell id="sJaDOPOqYYHjO4DBvdRy-48" style="edgeStyle=orthogonalEdgeStyle;rounded=0;orthogonalLoop=1;jettySize=auto;html=1;exitX=1;exitY=1;exitDx=0;exitDy=0;entryX=0;entryY=0;entryDx=0;entryDy=0;curved=1;" edge="1" parent="1" source="sJaDOPOqYYHjO4DBvdRy-11" target="sJaDOPOqYYHjO4DBvdRy-13">
          <mxGeometry relative="1" as="geometry" />
        </mxCell>
        <mxCell id="sJaDOPOqYYHjO4DBvdRy-49" value="DIRECTION=1" style="edgeLabel;html=1;align=center;verticalAlign=middle;resizable=0;points=[];" vertex="1" connectable="0" parent="sJaDOPOqYYHjO4DBvdRy-48">
          <mxGeometry x="0.3174" y="-12" relative="1" as="geometry">
            <mxPoint x="-21" y="3" as="offset" />
          </mxGeometry>
        </mxCell>
        <mxCell id="sJaDOPOqYYHjO4DBvdRy-56" style="edgeStyle=orthogonalEdgeStyle;rounded=0;orthogonalLoop=1;jettySize=auto;html=1;exitX=0;exitY=1;exitDx=0;exitDy=0;entryX=1;entryY=0;entryDx=0;entryDy=0;curved=1;" edge="1" parent="1" source="sJaDOPOqYYHjO4DBvdRy-11" target="sJaDOPOqYYHjO4DBvdRy-10">
          <mxGeometry relative="1" as="geometry">
            <Array as="points">
              <mxPoint x="216" y="260" />
              <mxPoint x="193" y="260" />
            </Array>
          </mxGeometry>
        </mxCell>
        <mxCell id="sJaDOPOqYYHjO4DBvdRy-57" value="DIRECTION=0" style="edgeLabel;html=1;align=center;verticalAlign=middle;resizable=0;points=[];" vertex="1" connectable="0" parent="sJaDOPOqYYHjO4DBvdRy-56">
          <mxGeometry x="0.2436" y="2" relative="1" as="geometry">
            <mxPoint x="8" as="offset" />
          </mxGeometry>
        </mxCell>
        <mxCell id="sJaDOPOqYYHjO4DBvdRy-11" value="STATE_9" style="ellipse;whiteSpace=wrap;html=1;aspect=fixed;" vertex="1" parent="1">
          <mxGeometry x="204" y="143" width="80" height="80" as="geometry" />
        </mxCell>
        <mxCell id="sJaDOPOqYYHjO4DBvdRy-50" style="edgeStyle=orthogonalEdgeStyle;rounded=0;orthogonalLoop=1;jettySize=auto;html=1;exitX=1;exitY=0;exitDx=0;exitDy=0;entryX=1;entryY=1;entryDx=0;entryDy=0;curved=1;" edge="1" parent="1" source="sJaDOPOqYYHjO4DBvdRy-13" target="sJaDOPOqYYHjO4DBvdRy-2">
          <mxGeometry relative="1" as="geometry">
            <Array as="points">
              <mxPoint x="450" y="312" />
              <mxPoint x="450" y="157" />
            </Array>
          </mxGeometry>
        </mxCell>
        <mxCell id="sJaDOPOqYYHjO4DBvdRy-51" value="DIRECTION=1" style="edgeLabel;html=1;align=center;verticalAlign=middle;resizable=0;points=[];" vertex="1" connectable="0" parent="sJaDOPOqYYHjO4DBvdRy-50">
          <mxGeometry x="0.0205" y="1" relative="1" as="geometry">
            <mxPoint as="offset" />
          </mxGeometry>
        </mxCell>
        <mxCell id="sJaDOPOqYYHjO4DBvdRy-54" style="edgeStyle=orthogonalEdgeStyle;rounded=0;orthogonalLoop=1;jettySize=auto;html=1;exitX=0;exitY=0.5;exitDx=0;exitDy=0;entryX=0.5;entryY=1;entryDx=0;entryDy=0;curved=1;" edge="1" parent="1" source="sJaDOPOqYYHjO4DBvdRy-13" target="sJaDOPOqYYHjO4DBvdRy-11">
          <mxGeometry relative="1" as="geometry">
            <Array as="points">
              <mxPoint x="351" y="330" />
              <mxPoint x="270" y="330" />
              <mxPoint x="270" y="223" />
            </Array>
          </mxGeometry>
        </mxCell>
        <mxCell id="sJaDOPOqYYHjO4DBvdRy-55" value="DIRECTION=0" style="edgeLabel;html=1;align=center;verticalAlign=middle;resizable=0;points=[];" vertex="1" connectable="0" parent="sJaDOPOqYYHjO4DBvdRy-54">
          <mxGeometry x="-0.3176" y="-25" relative="1" as="geometry">
            <mxPoint x="-1" y="-5" as="offset" />
          </mxGeometry>
        </mxCell>
        <mxCell id="sJaDOPOqYYHjO4DBvdRy-13" value="STATE_0" style="ellipse;whiteSpace=wrap;html=1;aspect=fixed;" vertex="1" parent="1">
          <mxGeometry x="351" y="300" width="80" height="80" as="geometry" />
        </mxCell>
        <mxCell id="sJaDOPOqYYHjO4DBvdRy-72" value="" style="edgeStyle=none;orthogonalLoop=1;jettySize=auto;html=1;rounded=0;entryX=0.5;entryY=1;entryDx=0;entryDy=0;" edge="1" parent="1" target="sJaDOPOqYYHjO4DBvdRy-13">
          <mxGeometry width="100" relative="1" as="geometry">
            <mxPoint x="391" y="460" as="sourcePoint" />
            <mxPoint x="440" y="450" as="targetPoint" />
            <Array as="points" />
          </mxGeometry>
        </mxCell>
        <mxCell id="sJaDOPOqYYHjO4DBvdRy-73" value="Synchronous&lt;div&gt;reset=0&lt;/div&gt;" style="edgeLabel;html=1;align=center;verticalAlign=middle;resizable=0;points=[];" vertex="1" connectable="0" parent="sJaDOPOqYYHjO4DBvdRy-72">
          <mxGeometry x="0.0857" y="-3" relative="1" as="geometry">
            <mxPoint x="-3" y="4" as="offset" />
          </mxGeometry>
        </mxCell>
        <mxCell id="sJaDOPOqYYHjO4DBvdRy-74" style="edgeStyle=orthogonalEdgeStyle;rounded=0;orthogonalLoop=1;jettySize=auto;html=1;exitX=1;exitY=0.5;exitDx=0;exitDy=0;entryX=1;entryY=1;entryDx=0;entryDy=0;curved=1;" edge="1" parent="1" source="sJaDOPOqYYHjO4DBvdRy-13" target="sJaDOPOqYYHjO4DBvdRy-13">
          <mxGeometry relative="1" as="geometry">
            <Array as="points">
              <mxPoint x="460" y="340" />
              <mxPoint x="460" y="368" />
            </Array>
          </mxGeometry>
        </mxCell>
        <mxCell id="sJaDOPOqYYHjO4DBvdRy-75" value="HOLD=0" style="edgeLabel;html=1;align=center;verticalAlign=middle;resizable=0;points=[];" vertex="1" connectable="0" parent="sJaDOPOqYYHjO4DBvdRy-74">
          <mxGeometry x="-0.0554" y="2" relative="1" as="geometry">
            <mxPoint as="offset" />
          </mxGeometry>
        </mxCell>
        <mxCell id="sJaDOPOqYYHjO4DBvdRy-76" style="edgeStyle=orthogonalEdgeStyle;rounded=0;orthogonalLoop=1;jettySize=auto;html=1;exitX=0.5;exitY=0;exitDx=0;exitDy=0;entryX=0;entryY=0;entryDx=0;entryDy=0;curved=1;" edge="1" parent="1" source="sJaDOPOqYYHjO4DBvdRy-2" target="sJaDOPOqYYHjO4DBvdRy-2">
          <mxGeometry relative="1" as="geometry">
            <Array as="points">
              <mxPoint x="391" y="60" />
              <mxPoint x="363" y="60" />
            </Array>
          </mxGeometry>
        </mxCell>
        <mxCell id="sJaDOPOqYYHjO4DBvdRy-77" value="HOLD=0" style="edgeLabel;html=1;align=center;verticalAlign=middle;resizable=0;points=[];" vertex="1" connectable="0" parent="sJaDOPOqYYHjO4DBvdRy-76">
          <mxGeometry x="-0.1021" y="4" relative="1" as="geometry">
            <mxPoint y="-14" as="offset" />
          </mxGeometry>
        </mxCell>
        <mxCell id="sJaDOPOqYYHjO4DBvdRy-78" style="edgeStyle=orthogonalEdgeStyle;rounded=0;orthogonalLoop=1;jettySize=auto;html=1;exitX=1;exitY=0;exitDx=0;exitDy=0;entryX=1;entryY=0.5;entryDx=0;entryDy=0;curved=1;" edge="1" parent="1" source="sJaDOPOqYYHjO4DBvdRy-3" target="sJaDOPOqYYHjO4DBvdRy-3">
          <mxGeometry relative="1" as="geometry">
            <Array as="points">
              <mxPoint x="566" y="140" />
              <mxPoint x="600" y="140" />
              <mxPoint x="600" y="183" />
            </Array>
          </mxGeometry>
        </mxCell>
        <mxCell id="sJaDOPOqYYHjO4DBvdRy-79" value="HOLD=0" style="edgeLabel;html=1;align=center;verticalAlign=middle;resizable=0;points=[];" vertex="1" connectable="0" parent="sJaDOPOqYYHjO4DBvdRy-78">
          <mxGeometry x="0.0202" y="-2" relative="1" as="geometry">
            <mxPoint x="12" as="offset" />
          </mxGeometry>
        </mxCell>
        <mxCell id="sJaDOPOqYYHjO4DBvdRy-80" style="edgeStyle=orthogonalEdgeStyle;rounded=0;orthogonalLoop=1;jettySize=auto;html=1;exitX=1;exitY=0.5;exitDx=0;exitDy=0;entryX=1;entryY=1;entryDx=0;entryDy=0;curved=1;" edge="1" parent="1" source="sJaDOPOqYYHjO4DBvdRy-5" target="sJaDOPOqYYHjO4DBvdRy-5">
          <mxGeometry relative="1" as="geometry">
            <Array as="points">
              <mxPoint x="657" y="320" />
              <mxPoint x="680" y="320" />
              <mxPoint x="680" y="346" />
            </Array>
          </mxGeometry>
        </mxCell>
        <mxCell id="sJaDOPOqYYHjO4DBvdRy-81" value="HOLD=0" style="edgeLabel;html=1;align=center;verticalAlign=middle;resizable=0;points=[];" vertex="1" connectable="0" parent="sJaDOPOqYYHjO4DBvdRy-80">
          <mxGeometry y="-2" relative="1" as="geometry">
            <mxPoint x="12" y="2" as="offset" />
          </mxGeometry>
        </mxCell>
        <mxCell id="sJaDOPOqYYHjO4DBvdRy-82" style="edgeStyle=orthogonalEdgeStyle;rounded=0;orthogonalLoop=1;jettySize=auto;html=1;exitX=1;exitY=1;exitDx=0;exitDy=0;entryX=0.5;entryY=1;entryDx=0;entryDy=0;curved=1;" edge="1" parent="1" source="sJaDOPOqYYHjO4DBvdRy-6" target="sJaDOPOqYYHjO4DBvdRy-6">
          <mxGeometry relative="1" as="geometry">
            <Array as="points">
              <mxPoint x="630" y="501" />
              <mxPoint x="630" y="540" />
              <mxPoint x="590" y="540" />
            </Array>
          </mxGeometry>
        </mxCell>
        <mxCell id="sJaDOPOqYYHjO4DBvdRy-83" value="HOLD=0" style="edgeLabel;html=1;align=center;verticalAlign=middle;resizable=0;points=[];" vertex="1" connectable="0" parent="sJaDOPOqYYHjO4DBvdRy-82">
          <mxGeometry x="-0.3455" relative="1" as="geometry">
            <mxPoint as="offset" />
          </mxGeometry>
        </mxCell>
        <mxCell id="sJaDOPOqYYHjO4DBvdRy-84" style="edgeStyle=orthogonalEdgeStyle;rounded=0;orthogonalLoop=1;jettySize=auto;html=1;exitX=1;exitY=1;exitDx=0;exitDy=0;entryX=0.5;entryY=1;entryDx=0;entryDy=0;curved=1;" edge="1" parent="1" source="sJaDOPOqYYHjO4DBvdRy-7" target="sJaDOPOqYYHjO4DBvdRy-7">
          <mxGeometry relative="1" as="geometry">
            <Array as="points">
              <mxPoint x="510" y="602" />
              <mxPoint x="510" y="650" />
              <mxPoint x="470" y="650" />
            </Array>
          </mxGeometry>
        </mxCell>
        <mxCell id="sJaDOPOqYYHjO4DBvdRy-85" value="HOLD=0" style="edgeLabel;html=1;align=center;verticalAlign=middle;resizable=0;points=[];" vertex="1" connectable="0" parent="sJaDOPOqYYHjO4DBvdRy-84">
          <mxGeometry x="-0.2679" y="-4" relative="1" as="geometry">
            <mxPoint x="4" as="offset" />
          </mxGeometry>
        </mxCell>
        <mxCell id="sJaDOPOqYYHjO4DBvdRy-86" style="edgeStyle=orthogonalEdgeStyle;rounded=0;orthogonalLoop=1;jettySize=auto;html=1;exitX=0.5;exitY=1;exitDx=0;exitDy=0;entryX=0;entryY=1;entryDx=0;entryDy=0;curved=1;" edge="1" parent="1" source="sJaDOPOqYYHjO4DBvdRy-8" target="sJaDOPOqYYHjO4DBvdRy-8">
          <mxGeometry relative="1" as="geometry">
            <Array as="points">
              <mxPoint x="313" y="650" />
              <mxPoint x="270" y="650" />
              <mxPoint x="270" y="602" />
            </Array>
          </mxGeometry>
        </mxCell>
        <mxCell id="sJaDOPOqYYHjO4DBvdRy-87" value="HOLD=0" style="edgeLabel;html=1;align=center;verticalAlign=middle;resizable=0;points=[];" vertex="1" connectable="0" parent="sJaDOPOqYYHjO4DBvdRy-86">
          <mxGeometry x="0.3172" y="-5" relative="1" as="geometry">
            <mxPoint as="offset" />
          </mxGeometry>
        </mxCell>
        <mxCell id="sJaDOPOqYYHjO4DBvdRy-88" style="edgeStyle=orthogonalEdgeStyle;rounded=0;orthogonalLoop=1;jettySize=auto;html=1;exitX=0;exitY=0.5;exitDx=0;exitDy=0;entryX=0;entryY=0;entryDx=0;entryDy=0;curved=1;" edge="1" parent="1" source="sJaDOPOqYYHjO4DBvdRy-9" target="sJaDOPOqYYHjO4DBvdRy-9">
          <mxGeometry relative="1" as="geometry">
            <Array as="points">
              <mxPoint x="120" y="473" />
              <mxPoint x="120" y="440" />
              <mxPoint x="165" y="440" />
            </Array>
          </mxGeometry>
        </mxCell>
        <mxCell id="sJaDOPOqYYHjO4DBvdRy-89" value="HOLD=0" style="edgeLabel;html=1;align=center;verticalAlign=middle;resizable=0;points=[];" vertex="1" connectable="0" parent="sJaDOPOqYYHjO4DBvdRy-88">
          <mxGeometry x="-0.156" y="1" relative="1" as="geometry">
            <mxPoint as="offset" />
          </mxGeometry>
        </mxCell>
        <mxCell id="sJaDOPOqYYHjO4DBvdRy-90" style="edgeStyle=orthogonalEdgeStyle;rounded=0;orthogonalLoop=1;jettySize=auto;html=1;exitX=0;exitY=0.5;exitDx=0;exitDy=0;entryX=0;entryY=0;entryDx=0;entryDy=0;curved=1;" edge="1" parent="1" source="sJaDOPOqYYHjO4DBvdRy-10" target="sJaDOPOqYYHjO4DBvdRy-10">
          <mxGeometry relative="1" as="geometry">
            <Array as="points">
              <mxPoint x="80" y="318" />
              <mxPoint x="80" y="260" />
              <mxPoint x="137" y="260" />
            </Array>
          </mxGeometry>
        </mxCell>
        <mxCell id="sJaDOPOqYYHjO4DBvdRy-91" value="HOLD=0" style="edgeLabel;html=1;align=center;verticalAlign=middle;resizable=0;points=[];" vertex="1" connectable="0" parent="sJaDOPOqYYHjO4DBvdRy-90">
          <mxGeometry x="-0.0649" y="-4" relative="1" as="geometry">
            <mxPoint x="-4" y="6" as="offset" />
          </mxGeometry>
        </mxCell>
        <mxCell id="sJaDOPOqYYHjO4DBvdRy-92" style="edgeStyle=orthogonalEdgeStyle;rounded=0;orthogonalLoop=1;jettySize=auto;html=1;exitX=0.5;exitY=0;exitDx=0;exitDy=0;entryX=1;entryY=0;entryDx=0;entryDy=0;curved=1;" edge="1" parent="1" source="sJaDOPOqYYHjO4DBvdRy-11" target="sJaDOPOqYYHjO4DBvdRy-11">
          <mxGeometry relative="1" as="geometry">
            <Array as="points">
              <mxPoint x="244" y="100" />
              <mxPoint x="300" y="100" />
              <mxPoint x="300" y="155" />
            </Array>
          </mxGeometry>
        </mxCell>
        <mxCell id="sJaDOPOqYYHjO4DBvdRy-93" value="HOLD=0" style="edgeLabel;html=1;align=center;verticalAlign=middle;resizable=0;points=[];" vertex="1" connectable="0" parent="sJaDOPOqYYHjO4DBvdRy-92">
          <mxGeometry x="0.3449" y="-2" relative="1" as="geometry">
            <mxPoint as="offset" />
          </mxGeometry>
        </mxCell>
      </root>
    </mxGraphModel>
  </diagram>
</mxfile>
